<svg width="100" height="100" viewBox="0 0 100 100" fill="none" xmlns="http://www.w3.org/2000/svg">
<rect width="100" height="100" rx="10" fill="#171717"/>
<path d="M67.0438 57.9C67.0438 57.7 67.0438 57.5 67.0438 57.3C67.0438 57.1 67.0438 56.9 67.0438 56.7C67.0438 55.4333 67.0104 54.3 66.9438 53.3C66.9438 52.2333 66.8438 51.3667 66.6438 50.7C66.5771 50.3 66.0438 50 65.0438 49.8C64.1104 49.5333 63.1104 49.3667 62.0438 49.3C61.0438 49.1667 60.3438 49.1 59.9438 49.1C59.7438 48.8333 59.6104 48.3667 59.5438 47.7C59.5438 47.0333 59.6771 46.5667 59.9438 46.3C61.9438 46.3667 63.8771 46.4667 65.7438 46.6C67.6104 46.7333 69.4771 46.8 71.3437 46.8C73.2771 46.8 75.0771 46.7333 76.7438 46.6C78.4771 46.4667 80.3438 46.3667 82.3438 46.3C82.6104 46.5667 82.7104 47.0333 82.6438 47.7C82.6438 48.3667 82.5438 48.8333 82.3438 49.1C81.9438 49.1 81.2438 49.1667 80.2438 49.3C79.2438 49.3667 78.3104 49.5333 77.4438 49.8C76.5771 50 76.0771 50.3 75.9438 50.7C75.6771 51.5 75.5104 52.5333 75.4438 53.8C75.4438 55.0667 75.4438 56.4333 75.4438 57.9V64.8C75.4438 65.8667 75.6104 66.6667 75.9438 67.2C76.2771 67.7333 76.4438 68.2667 76.4438 68.8C76.4438 69.0667 76.3438 69.3 76.1438 69.5C75.9438 69.7 75.4104 70.0333 74.5438 70.5C73.1438 71.2333 71.5104 72 69.6438 72.8C67.8438 73.6 65.5438 74.2667 62.7438 74.8C60.0104 75.3333 56.4771 75.6 52.1438 75.6C47.3438 75.6 42.9438 74.7667 38.9438 73.1C34.9438 71.3667 31.4771 69.0333 28.5438 66.1C25.6771 63.1 23.4438 59.7 21.8438 55.9C20.3104 52.0333 19.5438 47.9333 19.5438 43.6C19.5438 39 20.3438 34.7 21.9438 30.7C23.6104 26.6333 25.9104 23.0333 28.8438 19.9C31.7771 16.7667 35.2438 14.3333 39.2438 12.6C43.3104 10.8 47.7438 9.9 52.5438 9.9C55.7438 9.9 59.0771 10.0333 62.5438 10.3C66.0771 10.5667 69.6438 11.1 73.2438 11.9C73.2438 11.9 73.3438 12.6 73.5438 14C73.8104 15.3333 74.0771 16.9333 74.3438 18.8C74.6104 20.6 74.8438 22.2667 75.0438 23.8C75.3104 25.2667 75.4438 26.1333 75.4438 26.4C75.5104 26.6667 75.3104 26.9333 74.8438 27.2C74.3771 27.4667 73.8771 27.6 73.3438 27.6C72.8771 27.6 72.4771 27.5 72.1438 27.3C72.0104 26.5667 71.6771 25.4333 71.1438 23.9C70.6771 22.3667 69.7771 20.7667 68.4438 19.1C67.1771 17.4333 65.3104 16.0333 62.8438 14.9C60.3771 13.7 57.1104 13.1 53.0438 13.1C49.4438 13.1 46.1771 13.9333 43.2438 15.6C40.3104 17.2 37.7771 19.4 35.6438 22.2C33.5771 24.9333 31.9771 28 30.8438 31.4C29.7771 34.7333 29.2438 38.1 29.2438 41.5C29.2438 45.3 29.7438 49.0333 30.7438 52.7C31.8104 56.3667 33.3771 59.7 35.4438 62.7C37.5771 65.6333 40.2104 68 43.3438 69.8C46.5438 71.5333 50.2771 72.4 54.5438 72.4C57.0771 72.4 59.3104 72.0667 61.2438 71.4C63.2438 70.6667 64.9771 69.9333 66.4438 69.2C66.7771 69.0667 66.9438 68.9 66.9438 68.7C67.0104 68.4333 67.0438 68.1333 67.0438 67.8V57.9Z" fill="#EEEEEE"/>
<path d="M50.9883 24C53.0549 24 54.7549 24.1333 56.0883 24.4C57.4883 24.6 58.8883 24.9 60.2883 25.3C61.7549 25.7 63.5549 26.1667 65.6883 26.7C66.0883 29.2333 66.3883 31.8667 66.5883 34.6C66.8549 37.2667 67.0216 39.2667 67.0883 40.6C67.1549 40.9333 66.9216 41.2 66.3883 41.4C65.8549 41.5333 65.4216 41.6 65.0883 41.6C64.6216 41.6 64.255 41.4667 63.9883 41.2C63.8549 40 63.4549 38.6 62.7883 37C62.1216 35.4 61.1883 33.8667 59.9883 32.4C58.8549 30.9333 57.4549 29.7333 55.7883 28.8C54.1883 27.8 52.3549 27.3 50.2883 27.3C47.6216 27.3 45.5216 27.8667 43.9883 29C42.4549 30.1333 41.3549 31.5333 40.6883 33.2C40.0216 34.8667 39.6883 36.5 39.6883 38.1C39.6883 40.7 40.3549 42.8667 41.6883 44.6C43.0883 46.3333 44.8216 47.8667 46.8883 49.2C49.0216 50.5333 51.1549 51.9 53.2883 53.3C54.8883 54.3 56.6549 55.4 58.5883 56.6C60.5216 57.8 62.3883 59.1333 64.1883 60.6C65.9883 62.0667 67.455 63.7667 68.5883 65.7C69.7216 67.5667 70.2883 69.7 70.2883 72.1C70.2883 75.6333 69.2883 78.7667 67.2883 81.5C65.355 84.1667 62.8216 86.2667 59.6883 87.8C56.6216 89.2667 53.3549 90 49.8883 90C46.6216 90 43.4549 89.6333 40.3883 88.9C37.3883 88.1667 34.6883 87.5667 32.2883 87.1C31.8883 85.1667 31.5216 83.1 31.1883 80.9C30.9216 78.7 30.6883 76.7667 30.4883 75.1C30.3549 73.4333 30.2883 72.4 30.2883 72C30.6216 71.6667 30.9883 71.4 31.3883 71.2C31.8549 70.9333 32.3216 70.8 32.7883 70.8C33.3883 70.8 33.7549 71.1 33.8883 71.7C34.0883 72.6333 34.4883 73.9333 35.0883 75.6C35.7549 77.2 36.6883 78.8667 37.8883 80.6C39.1549 82.3333 40.7549 83.8 42.6883 85C44.6883 86.1333 47.1549 86.7 50.0883 86.7C53.2216 86.7 55.9549 85.6667 58.2883 83.6C60.6216 81.4667 61.7883 78.5 61.7883 74.7C61.7883 71.9667 61.1549 69.8333 59.8883 68.3C58.6883 66.7667 57.0883 65.4333 55.0883 64.3C53.1549 63.1667 51.0549 61.9667 48.7883 60.7C46.3216 59.2333 43.7549 57.6333 41.0883 55.9C38.4883 54.1 36.2883 52 34.4883 49.6C32.6883 47.2 31.7883 44.3667 31.7883 41.1C31.7883 37.6333 32.6883 34.6333 34.4883 32.1C36.3549 29.5 38.7549 27.5 41.6883 26.1C44.6216 24.7 47.7216 24 50.9883 24Z" fill="#EEEEEE"/>
</svg>
