<svg width="80" height="81" viewBox="0 0 80 81" fill="none" xmlns="http://www.w3.org/2000/svg">
<path d="M57.0438 48.9C57.0438 48.7 57.0438 48.5 57.0438 48.3C57.0438 48.1 57.0438 47.9 57.0438 47.7C57.0438 46.4333 57.0104 45.3 56.9438 44.3C56.9438 43.2333 56.8438 42.3667 56.6438 41.7C56.5771 41.3 56.0438 41 55.0438 40.8C54.1104 40.5333 53.1104 40.3667 52.0438 40.3C51.0438 40.1667 50.3438 40.1 49.9438 40.1C49.7438 39.8333 49.6104 39.3667 49.5438 38.7C49.5438 38.0333 49.6771 37.5667 49.9438 37.3C51.9438 37.3667 53.8771 37.4667 55.7438 37.6C57.6104 37.7333 59.4771 37.8 61.3437 37.8C63.2771 37.8 65.0771 37.7333 66.7438 37.6C68.4771 37.4667 70.3438 37.3667 72.3438 37.3C72.6104 37.5667 72.7104 38.0333 72.6438 38.7C72.6438 39.3667 72.5438 39.8333 72.3438 40.1C71.9438 40.1 71.2438 40.1667 70.2438 40.3C69.2438 40.3667 68.3104 40.5333 67.4438 40.8C66.5771 41 66.0771 41.3 65.9438 41.7C65.6771 42.5 65.5104 43.5333 65.4438 44.8C65.4438 46.0667 65.4438 47.4333 65.4438 48.9V55.8C65.4438 56.8667 65.6104 57.6667 65.9438 58.2C66.2771 58.7333 66.4438 59.2667 66.4438 59.8C66.4438 60.0667 66.3438 60.3 66.1438 60.5C65.9438 60.7 65.4104 61.0333 64.5438 61.5C63.1438 62.2333 61.5104 63 59.6438 63.8C57.8438 64.6 55.5438 65.2667 52.7438 65.8C50.0104 66.3333 46.4771 66.6 42.1438 66.6C37.3438 66.6 32.9438 65.7667 28.9438 64.1C24.9438 62.3667 21.4771 60.0333 18.5438 57.1C15.6771 54.1 13.4438 50.7 11.8438 46.9C10.3104 43.0333 9.54375 38.9333 9.54375 34.6C9.54375 30 10.3438 25.7 11.9438 21.7C13.6104 17.6333 15.9104 14.0333 18.8438 10.9C21.7771 7.76666 25.2438 5.33333 29.2438 3.6C33.3104 1.8 37.7438 0.899998 42.5438 0.899998C45.7438 0.899998 49.0771 1.03333 52.5438 1.3C56.0771 1.56667 59.6438 2.1 63.2438 2.9C63.2438 2.9 63.3438 3.6 63.5438 5C63.8104 6.33333 64.0771 7.93333 64.3438 9.8C64.6104 11.6 64.8438 13.2667 65.0438 14.8C65.3104 16.2667 65.4438 17.1333 65.4438 17.4C65.5104 17.6667 65.3104 17.9333 64.8438 18.2C64.3771 18.4667 63.8771 18.6 63.3438 18.6C62.8771 18.6 62.4771 18.5 62.1438 18.3C62.0104 17.5667 61.6771 16.4333 61.1438 14.9C60.6771 13.3667 59.7771 11.7667 58.4438 10.1C57.1771 8.43333 55.3104 7.03333 52.8438 5.9C50.3771 4.7 47.1104 4.1 43.0438 4.1C39.4438 4.1 36.1771 4.93333 33.2438 6.6C30.3104 8.2 27.7771 10.4 25.6438 13.2C23.5771 15.9333 21.9771 19 20.8438 22.4C19.7771 25.7333 19.2438 29.1 19.2438 32.5C19.2438 36.3 19.7438 40.0333 20.7438 43.7C21.8104 47.3667 23.3771 50.7 25.4438 53.7C27.5771 56.6333 30.2104 59 33.3438 60.8C36.5438 62.5333 40.2771 63.4 44.5438 63.4C47.0771 63.4 49.3104 63.0667 51.2438 62.4C53.2438 61.6667 54.9771 60.9333 56.4438 60.2C56.7771 60.0667 56.9438 59.9 56.9438 59.7C57.0104 59.4333 57.0438 59.1333 57.0438 58.8V48.9Z" fill="#EEEEEE"/>
<path d="M40.9883 15C43.0549 15 44.7549 15.1333 46.0883 15.4C47.4883 15.6 48.8883 15.9 50.2883 16.3C51.7549 16.7 53.5549 17.1667 55.6883 17.7C56.0883 20.2333 56.3883 22.8667 56.5883 25.6C56.8549 28.2667 57.0216 30.2667 57.0883 31.6C57.1549 31.9333 56.9216 32.2 56.3883 32.4C55.8549 32.5333 55.4216 32.6 55.0883 32.6C54.6216 32.6 54.255 32.4667 53.9883 32.2C53.8549 31 53.4549 29.6 52.7883 28C52.1216 26.4 51.1883 24.8667 49.9883 23.4C48.8549 21.9333 47.4549 20.7333 45.7883 19.8C44.1883 18.8 42.3549 18.3 40.2883 18.3C37.6216 18.3 35.5216 18.8667 33.9883 20C32.4549 21.1333 31.3549 22.5333 30.6883 24.2C30.0216 25.8667 29.6883 27.5 29.6883 29.1C29.6883 31.7 30.3549 33.8667 31.6883 35.6C33.0883 37.3333 34.8216 38.8667 36.8883 40.2C39.0216 41.5333 41.1549 42.9 43.2883 44.3C44.8883 45.3 46.6549 46.4 48.5883 47.6C50.5216 48.8 52.3883 50.1333 54.1883 51.6C55.9883 53.0667 57.455 54.7667 58.5883 56.7C59.7216 58.5667 60.2883 60.7 60.2883 63.1C60.2883 66.6333 59.2883 69.7667 57.2883 72.5C55.355 75.1667 52.8216 77.2667 49.6883 78.8C46.6216 80.2667 43.3549 81 39.8883 81C36.6216 81 33.4549 80.6333 30.3883 79.9C27.3883 79.1667 24.6883 78.5667 22.2883 78.1C21.8883 76.1667 21.5216 74.1 21.1883 71.9C20.9216 69.7 20.6883 67.7667 20.4883 66.1C20.3549 64.4333 20.2883 63.4 20.2883 63C20.6216 62.6667 20.9883 62.4 21.3883 62.2C21.8549 61.9333 22.3216 61.8 22.7883 61.8C23.3883 61.8 23.7549 62.1 23.8883 62.7C24.0883 63.6333 24.4883 64.9333 25.0883 66.6C25.7549 68.2 26.6883 69.8667 27.8883 71.6C29.1549 73.3333 30.7549 74.8 32.6883 76C34.6883 77.1333 37.1549 77.7 40.0883 77.7C43.2216 77.7 45.9549 76.6667 48.2883 74.6C50.6216 72.4667 51.7883 69.5 51.7883 65.7C51.7883 62.9667 51.1549 60.8333 49.8883 59.3C48.6883 57.7667 47.0883 56.4333 45.0883 55.3C43.1549 54.1667 41.0549 52.9667 38.7883 51.7C36.3216 50.2333 33.7549 48.6333 31.0883 46.9C28.4883 45.1 26.2883 43 24.4883 40.6C22.6883 38.2 21.7883 35.3667 21.7883 32.1C21.7883 28.6333 22.6883 25.6333 24.4883 23.1C26.3549 20.5 28.7549 18.5 31.6883 17.1C34.6216 15.7 37.7216 15 40.9883 15Z" fill="#EEEEEE"/>
</svg>
